/* XPM */
static char * iconify3_pressed_xpm[] = {
"15 15 6 1",
" 	c #DEAEC6",
".	c #B44D7B",
"+	c #52233A",
"@	c #DDAEC5",
"#	c #B44D7A",
"$	c #57253B",
"               ",
"               ",
"...............",
"+++++++++++++++",
"@@@@@@@@@@@@@@@",
" ##############",
" ##############",
" ##############",
" #####$$$######",
" #####$$$######",
" #####$$$######",
" ##############",
" ##############",
" ##############",
" ##############"};
