/* XPM */
static char * stick3_xpm[] = {
"15 15 6 1",
" 	c #DEAEC6",
".	c #B44D7B",
"+	c #52233A",
"@	c #DDAEC5",
"#	c #B44D7A",
"$	c #641A3B",
"               ",
"               ",
"...............",
"+++++++++++++++",
"@@@@@@@@@@@@@@@",
" ##############",
" ##############",
" ##############",
" #####   ######",
" ##### #$######",
" ##### $$######",
" ##############",
" ##############",
" ##############",
" ##############"};
