/* XPM */
static char * stick2_stuck_xpm[] = {
"15 15 3 1",
" 	c #DDE0E9",
".	c #ADB2C6",
"+	c #5A606E",
"               ",
"               ",
"...............",
"+++++++++++++++",
"               ",
" ..............",
" ..............",
" ....     .....",
" ....    +.....",
" ....  .++.....",
" ....  +++.....",
" .... ++++.....",
" ..............",
" ..............",
" .............."};
