/* XPM */
static char * title1_xpm[] = {
"1 16 4 1",
" 	c None",
".	c #DCADC2",
"+	c #B24D7A",
"@	c #57253B",
".",
".",
"+",
"+",
"+",
"+",
"+",
"+",
"+",
"+",
"+",
"+",
"+",
"+",
"@",
"@"};
