/* XPM */
static char * title2_xpm[] = {
"1 15 3 1",
" 	c #DFDFE7",
".	c #ADB2C6",
"+	c #5C6069",
" ",
" ",
".",
"+",
" ",
".",
".",
".",
".",
".",
".",
".",
".",
".",
"."};
